# xmcd
#
# Track frame offsets: 
#        150
#        13250
#        23155
#        33185
#        45347
#        56712
#        67470
#        82122
#        96557
#        106660
#        119610
#        133120
#
# Disc length: 1950 seconds
#
# Revision: 1
# Processed by: cddbd v1.5.2PL0 Copyright (c) Steve Scherf et al.
# Submitted via: ExactAudioCopy v1.0b1
#
DISCID=aa079c0c
DTITLE=Hank Thompson - Heres to Country Music
DYEAR=1988
DGENRE=Country
TTITLE0=If I Were You I'd Fall In Love With Me
TTITLE1=Here's To County Music
TTITLE2=If You've Got The Money
TTITLE3=The Hand I'm Holding Now
TTITLE4=Walkin' Back To San Antonio
TTITLE5=You Can't Teach An Old Heart New Tricks
TTITLE6=Drownin' My Troubles (Till They've Learned How To Swim)
TTITLE7=There's A Woman Waitin' In Nogales
TTITLE8=You're Gettin' Love All Over Me
TTITLE9=Cowgirl Cutie
TTITLE10=We Almost Had Texas Skies Today
TTITLE11=Love On The Rocks
EXTD=
EXTT0=
EXTT1=
EXTT2=
EXTT3=
EXTT4=
EXTT5=
EXTT6=
EXTT7=
EXTT8=
EXTT9=
EXTT10=
EXTT11=
PLAYORDER=
